<svg width="1440" height="1024" viewBox="0 0 1440 1024" fill="none" xmlns="http://www.w3.org/2000/svg">
<path d="M172.032 801.174L167.166 761.635L203.84 777.19L172.032 801.174Z" stroke="#FF6D3F" stroke-width="2"/>
<path d="M1268.47 877.014L1307.5 869.035L1294.9 906.825L1268.47 877.014Z" stroke="white" stroke-width="2"/>
<path d="M749 900.609C776.429 893.388 801.548 873.651 785.067 918.758C810.605 895.061 814.222 926.079 812.838 944.551" stroke="white" stroke-width="2"/>
<path d="M1192 133.609C1219.43 126.388 1244.55 106.651 1228.07 151.758C1253.61 128.061 1257.22 159.079 1255.84 177.551" stroke="#FF6D3F" stroke-width="2"/>
<path d="M507.304 453.31C559.525 468.301 620.208 460.427 548.885 518.522C614.139 504.541 589.699 559.139 569.322 588.187" stroke="#FF6D3F" stroke-width="2"/>
<path d="M1302.7 503.56C1300.39 507.613 1279.27 528.762 1268.99 538.83L1233.72 505.118" stroke="white" stroke-width="2"/>
<path d="M229.282 200.433C225.577 197.6 207.462 173.819 198.868 162.283L237.019 131.869" stroke="#FF6D3F" stroke-width="2"/>
<circle cx="171.013" cy="451" r="24" stroke="white" stroke-width="2"/>
<circle cx="1029" cy="729" r="37" stroke="#FF6D3F" stroke-width="2"/>
<path d="M973.081 494C924.944 394.104 1047.01 458.922 928 482.562" stroke="#FF6D3F" stroke-width="2"/>
<path d="M495.081 886C446.944 786.104 569.006 850.922 450 874.562" stroke="#FF6D3F" stroke-width="2"/>
<path d="M723.395 219.8C538.703 86.8737 781.99 89.9456 648.467 240.816" stroke="white" stroke-width="2"/>
</svg>
